<?xml version="1.0" standalone="no"?>
<!DOCTYPE svg PUBLIC "-//W3C//DTD SVG 20010904//EN"
 "http://www.w3.org/TR/2001/REC-SVG-20010904/DTD/svg10.dtd">
<svg version="1.0" xmlns="http://www.w3.org/2000/svg"
 width="50.000000pt" height="50.000000pt" viewBox="0 0 50.000000 50.000000"
 preserveAspectRatio="xMidYMid meet">

<g transform="translate(0.000000,50.000000) scale(0.100000,-0.100000)"
fill="#000000" stroke="none">
<path d="M109 421 c-27 -27 -29 -35 -29 -101 0 -81 2 -86 83 -197 60 -83 82
-98 107 -68 14 17 10 42 -14 98 l-16 37 66 0 c77 0 104 12 104 45 0 13 4 26 9
29 11 7 11 105 0 112 -5 3 -9 14 -9 24 0 42 -24 50 -151 50 -120 0 -121 0
-150 -29z m276 -17 c1 -12 7 -29 14 -38 10 -12 11 -19 2 -30 -9 -11 -9 -19 1
-36 10 -15 10 -22 2 -28 -7 -4 -14 -18 -15 -32 -4 -24 -7 -25 -86 -28 -94 -3
-94 -4 -62 -76 20 -46 20 -76 0 -76 -5 0 -39 41 -75 92 l-66 91 0 70 c0 59 4
75 22 94 21 23 27 23 143 21 115 -3 120 -4 120 -24z"/>
</g>
</svg>
