<?xml version="1.0" standalone="no"?>
<!DOCTYPE svg PUBLIC "-//W3C//DTD SVG 20010904//EN"
 "http://www.w3.org/TR/2001/REC-SVG-20010904/DTD/svg10.dtd">
<svg version="1.0" xmlns="http://www.w3.org/2000/svg"
 width="50.000000pt" height="50.000000pt" viewBox="0 0 50.000000 50.000000"
 preserveAspectRatio="xMidYMid meet">

<g transform="translate(0.000000,50.000000) scale(0.100000,-0.100000)"
fill="#723CE6" stroke="none">
<path d="M56 444 c-24 -23 -24 -365 0 -388 23 -24 365 -24 388 0 24 23 24 365
0 388 -23 24 -365 24 -388 0z m249 -74 c4 -11 20 -27 36 -35 17 -9 29 -24 29
-35 0 -22 -20 -26 -51 -10 -18 10 -19 7 -19 -49 0 -33 -5 -71 -11 -84 -12 -27
-47 -47 -80 -47 -30 0 -79 53 -79 85 0 29 49 85 74 85 23 0 20 -37 -3 -45 -37
-12 -38 -68 -1 -80 11 -3 28 -1 40 5 18 10 20 20 20 120 0 102 1 110 19 110
11 0 23 -9 26 -20z"/>
</g>
</svg>
