<?xml version="1.0" standalone="no"?>
<!DOCTYPE svg PUBLIC "-//W3C//DTD SVG 20010904//EN"
 "http://www.w3.org/TR/2001/REC-SVG-20010904/DTD/svg10.dtd">
<svg version="1.0" xmlns="http://www.w3.org/2000/svg"
 width="50.000000pt" height="50.000000pt" viewBox="0 0 50.000000 50.000000"
 preserveAspectRatio="xMidYMid meet">

<g transform="translate(0.000000,50.000000) scale(0.100000,-0.100000)"
fill="#723CE6" stroke="none">
<path d="M56 444 c-24 -23 -24 -365 0 -388 23 -24 365 -24 388 0 24 23 24 365
0 388 -23 24 -365 24 -388 0z m214 -154 c0 -49 12 -51 39 -5 16 28 27 35 51
35 35 0 37 -6 10 -40 -25 -32 -25 -52 0 -75 28 -25 25 -35 -12 -35 -19 0 -41
9 -55 21 -20 20 -23 20 -29 5 -8 -20 -52 -21 -81 -1 -19 14 -83 104 -83 118 0
4 13 7 29 7 20 0 32 -6 36 -19 3 -10 15 -27 27 -37 l21 -19 -6 43 c-5 41 -4
42 24 42 27 0 29 -3 29 -40z"/>
</g>
</svg>
