<svg xmlns="http://www.w3.org/2000/svg" xmlns:xlink="http://www.w3.org/1999/xlink"><defs/><symbol id="arrow-down" viewBox="0 0 24 24">
<path d="M7.75 1V16M7.75 16L14.5 9.25M7.75 16L1 9.25" stroke-width="2" stroke-linecap="round" stroke-linejoin="round"/>
</symbol><symbol id="arrow-left" viewBox="0 0 28 28">
<path d="M22.75 14L5.25 14M5.25 14L13.125 21.875M5.25 14L13.125 6.125" stroke-width="2" stroke-linecap="round" stroke-linejoin="round"/>
</symbol><symbol id="arrow-right" viewBox="0 0 30 30">
<path d="M5.625 15L24.375 15M24.375 15L15.9375 6.5625M24.375 15L15.9375 23.4375" stroke-width="2" stroke-linecap="round" stroke-linejoin="round"/>
</symbol><symbol id="artist" viewBox="0 0 24.000000 24.000000">

<g transform="translate(0.000000,24.000000) scale(0.100000,-0.100000)">
<path d="M90 195 c-15 -18 -10 -45 13 -59 34 -22 73 27 47 59 -16 19 -44 19
-60 0z m46 -16 c10 -17 -13 -36 -27 -22 -12 12 -4 33 11 33 5 0 12 -5 16 -11z"/>
<path d="M47 78 c-9 -5 -17 -18 -17 -28 0 -18 7 -20 90 -20 82 0 90 2 90 19 0
11 -6 23 -12 28 -19 11 -132 12 -151 1z m139 -20 c4 -5 -25 -8 -65 -8 -40 0
-70 4 -67 9 7 10 121 9 132 -1z"/>
</g>
</symbol><symbol id="auditions" viewBox="0 0 24.000000 24.000000">

<g transform="translate(0.000000,24.000000) scale(0.100000,-0.100000)">
<path d="M111 185 c-6 -22 -11 -47 -11 -55 -1 -8 -7 -1 -14 15 -12 30 -13 30
-24 8 -7 -12 -22 -24 -34 -26 -20 -4 -20 -4 4 -6 15 0 30 4 34 10 4 7 12 1 19
-17 l12 -29 15 50 15 50 8 -55 c4 -30 11 -64 15 -75 6 -17 10 -13 19 22 8 30
17 43 34 46 19 4 19 4 -5 6 -20 1 -28 -5 -36 -26 -8 -26 -10 -24 -17 27 -4 30
-11 64 -15 75 -6 17 -9 14 -19 -20z"/>
</g>
</symbol><symbol id="calendar" viewBox="0 0 24 24">
<path d="M6.75 3V5.25M17.25 3V5.25M3 18.75V7.5C3 6.25736 4.00736 5.25 5.25 5.25H18.75C19.9926 5.25 21 6.25736 21 7.5V18.75M3 18.75C3 19.9926 4.00736 21 5.25 21H18.75C19.9926 21 21 19.9926 21 18.75M3 18.75V11.25C3 10.0074 4.00736 9 5.25 9H18.75C19.9926 9 21 10.0074 21 11.25V18.75" stroke-width="1.5" stroke-linecap="round" stroke-linejoin="round"/>
</symbol><symbol id="clock" viewBox="0 0 24 24">
<path fill-rule="evenodd" clip-rule="evenodd" d="M12 2.25C6.61522 2.25 2.25 6.61522 2.25 12C2.25 17.3848 6.61522 21.75 12 21.75C17.3848 21.75 21.75 17.3848 21.75 12C21.75 6.61522 17.3848 2.25 12 2.25ZM12.75 6C12.75 5.58579 12.4142 5.25 12 5.25C11.5858 5.25 11.25 5.58579 11.25 6V12C11.25 12.4142 11.5858 12.75 12 12.75H16.5C16.9142 12.75 17.25 12.4142 17.25 12C17.25 11.5858 16.9142 11.25 16.5 11.25H12.75V6Z"/>
</symbol><symbol id="fingerDown" viewBox="0 0 50.000000 50.000000">

<g transform="translate(0.000000,50.000000) scale(0.100000,-0.100000)">
<path d="M109 421 c-27 -27 -29 -35 -29 -101 0 -81 2 -86 83 -197 60 -83 82
-98 107 -68 14 17 10 42 -14 98 l-16 37 66 0 c77 0 104 12 104 45 0 13 4 26 9
29 11 7 11 105 0 112 -5 3 -9 14 -9 24 0 42 -24 50 -151 50 -120 0 -121 0
-150 -29z m276 -17 c1 -12 7 -29 14 -38 10 -12 11 -19 2 -30 -9 -11 -9 -19 1
-36 10 -15 10 -22 2 -28 -7 -4 -14 -18 -15 -32 -4 -24 -7 -25 -86 -28 -94 -3
-94 -4 -62 -76 20 -46 20 -76 0 -76 -5 0 -39 41 -75 92 l-66 91 0 70 c0 59 4
75 22 94 21 23 27 23 143 21 115 -3 120 -4 120 -24z"/>
</g>
</symbol><symbol id="genres" viewBox="0 0 24 24">
<path d="M3.75 6C3.75 4.75736 4.75736 3.75 6 3.75H8.25C9.49264 3.75 10.5 4.75736 10.5 6V8.25C10.5 9.49264 9.49264 10.5 8.25 10.5H6C4.75736 10.5 3.75 9.49264 3.75 8.25V6Z" stroke-width="1.5" stroke-linecap="round" stroke-linejoin="round"/>
<path d="M3.75 15.75C3.75 14.5074 4.75736 13.5 6 13.5H8.25C9.49264 13.5 10.5 14.5074 10.5 15.75V18C10.5 19.2426 9.49264 20.25 8.25 20.25H6C4.75736 20.25 3.75 19.2426 3.75 18V15.75Z" stroke-width="1.5" stroke-linecap="round" stroke-linejoin="round"/>
<path d="M13.5 6C13.5 4.75736 14.5074 3.75 15.75 3.75H18C19.2426 3.75 20.25 4.75736 20.25 6V8.25C20.25 9.49264 19.2426 10.5 18 10.5H15.75C14.5074 10.5 13.5 9.49264 13.5 8.25V6Z" stroke-width="1.5" stroke-linecap="round" stroke-linejoin="round"/>
<path d="M13.5 15.75C13.5 14.5074 14.5074 13.5 15.75 13.5H18C19.2426 13.5 20.25 14.5074 20.25 15.75V18C20.25 19.2426 19.2426 20.25 18 20.25H15.75C14.5074 20.25 13.5 19.2426 13.5 18V15.75Z" stroke-width="1.5" stroke-linecap="round" stroke-linejoin="round"/>
</symbol><symbol id="gmail" viewBox="0 0 24 24">
    <path transform="translate(12 12) scale(1.35) translate(-12 -12)" d="M19.5 5.2h-15c-.8 0-1.5.7-1.5 1.5v10.5c0 .8.7 1.5 1.5 1.5h15c.8 0 1.5-.7 1.5-1.5V6.7c0-.8-.7-1.5-1.5-1.5zm0 3.1-7.5 4.7-7.5-4.7V6.7l7.5 4.6 7.5-4.6v1.6z"/>
</symbol><symbol id="heart" viewBox="0 0 50.000000 50.000000">

    <g transform="translate(0.000000,50.000000) scale(0.100000,-0.100000)" stroke-width="5">
        <path d="M90 412 c-46 -23 -72 -74 -67 -130 7 -67 52 -127 144 -194 l82 -60
48 33 c95 65 133 101 159 155 42 87 21 170 -51 200 -47 19 -84 18 -122 -6 -33
-20 -33 -20 -65 0 -41 25 -82 25 -128 2z"/>
    </g>
</symbol><symbol id="notification" viewBox="0 0 34 34">
<path d="M21.0472 24.1991C23.7312 23.8807 26.3193 23.2497 28.7741 22.3435C26.7386 20.0841 25.4997 17.093 25.4997 13.8125V12.8197C25.4999 12.7965 25.5 12.7732 25.5 12.75C25.5 8.05558 21.6944 4.25 17 4.25C12.3056 4.25 8.5 8.05558 8.5 12.75L8.49972 13.8125C8.49972 17.093 7.2608 20.0841 5.22534 22.3435C7.68032 23.2498 10.2686 23.8808 12.9528 24.1992M21.0472 24.1991C19.72 24.3565 18.3693 24.4375 16.9997 24.4375C15.6303 24.4375 14.2798 24.3565 12.9528 24.1992M21.0472 24.1991C21.1789 24.6091 21.25 25.0462 21.25 25.5C21.25 27.8472 19.3472 29.75 17 29.75C14.6528 29.75 12.75 27.8472 12.75 25.5C12.75 25.0463 12.8211 24.6091 12.9528 24.1992" stroke-width="1" stroke-linecap="round" stroke-linejoin="round"/>
</symbol><symbol id="play-circle" viewBox="0 0 30 30">
<path d="M26.25 15C26.25 21.2132 21.2132 26.25 15 26.25C8.7868 26.25 3.75 21.2132 3.75 15C3.75 8.7868 8.7868 3.75 15 3.75C21.2132 3.75 26.25 8.7868 26.25 15Z" stroke-width="1.5" stroke-linecap="round" stroke-linejoin="round"/>
<path d="M19.8874 14.5902C20.2089 14.7688 20.2089 15.2312 19.8874 15.4098L12.8839 19.3006C12.5715 19.4742 12.1875 19.2483 12.1875 18.8909V11.1091C12.1875 10.7517 12.5715 10.5258 12.8839 10.6994L19.8874 14.5902Z" stroke-width="1.5" stroke-linecap="round" stroke-linejoin="round"/>
</symbol><symbol id="play" viewBox="0 0 28 28">
<path fill-rule="evenodd" clip-rule="evenodd" d="M5.25 6.59479C5.25 4.93097 7.03383 3.87624 8.4917 4.67807L21.9557 12.0833C23.4668 12.9144 23.4668 15.0856 21.9557 15.9167L8.4917 23.3219C7.03383 24.1238 5.25 23.069 5.25 21.4052V6.59479Z"/>
</symbol><symbol id="plus" viewBox="0 0 48.000000 48.000000">

    <g transform="translate(0.000000,48.000000) scale(0.100000,-0.100000)" style="fill: #FFFFFF; stroke: none;">

        <path style="fill: #FFFFFF; stroke: none;" d="M220 350 l0 -90 -90 0 c-83 0 -90 -1 -90 -20 0 -19 7 -20 90 -20 l90
     0 0 -90 c0 -83 1 -90 20 -90 19 0 20 7 20 90 l0 90 90 0 c83 0 90 1 90 20 0
     19 -7 20 -90 20 l-90 0 0 90 c0 83 -1 90 -20 90 -19 0 -20 -7 -20 -90z"/>
    </g>
</symbol><symbol id="search" viewBox="0 0 34 34">
<path d="M29.5 29.5L22.138 22.138M22.138 22.138C24.0608 20.2153 25.25 17.559 25.25 14.625C25.25 8.75697 20.493 4 14.625 4C8.75697 4 4 8.75697 4 14.625C4 20.493 8.75697 25.25 14.625 25.25C17.559 25.25 20.2153 24.0608 22.138 22.138Z" stroke-width="1" stroke-linecap="round" stroke-linejoin="round"/>
</symbol><symbol id="star" viewBox="0 0 24 24">
<path d="M11.4807 3.4987C11.6729 3.03673 12.3273 3.03673 12.5195 3.4987L14.6454 8.61016C14.7264 8.80492 14.9096 8.93799 15.1199 8.95485L20.6381 9.39724C21.1369 9.43722 21.3391 10.0596 20.9591 10.3851L16.7548 13.9866C16.5946 14.1238 16.5246 14.3391 16.5736 14.5443L17.858 19.9292C17.9741 20.4159 17.4447 20.8005 17.0177 20.5397L12.2933 17.6541C12.1133 17.5441 11.8869 17.5441 11.7069 17.6541L6.98251 20.5397C6.55551 20.8005 6.02606 20.4159 6.14215 19.9292L7.42664 14.5443C7.47558 14.3391 7.40562 14.1238 7.24543 13.9866L3.04111 10.3851C2.66112 10.0596 2.86335 9.43722 3.36209 9.39724L8.88034 8.95485C9.0906 8.93799 9.27375 8.80492 9.35476 8.61016L11.4807 3.4987Z" stroke-width="1.5" stroke-linecap="round" stroke-linejoin="round"/>
</symbol><symbol id="telegram" viewBox="0 0 24 24">
    <path transform="translate(12 12) scale(1.24) translate(-12 -12)" d="M21.9 4.6c-.2-.2-.5-.2-.8-.1L2.9 11.6c-.4.1-.4.6-.1.8l4.6 1.8 1.8 5.6c.1.4.6.4.8.1l2.7-3.3 4.9 3.6c.3.2.8.1.9-.3l3.2-14.7c.1-.3 0-.6-.2-.8zM9.9 14.3l-.3 3.2-1.3-4.1 8.6-5.4-7 6.3z"/>
</symbol><symbol id="translate" viewBox="0 0 24 24">
<path d="M10.5 21L15.75 9.75L21 21M12 18H19.5M3 5.62136C4.96557 5.37626 6.96804 5.25 9 5.25M9 5.25C10.1208 5.25 11.2326 5.28841 12.3343 5.364M9 5.25V3M12.3343 5.364C11.1763 10.6578 7.68868 15.0801 3 17.5023M12.3343 5.364C13.2298 5.42545 14.1186 5.51146 15 5.62136M10.4113 14.1162C8.78554 12.4619 7.47704 10.4949 6.58432 8.31366" stroke-width="1.5" stroke-linecap="round" stroke-linejoin="round"/>
</symbol><symbol id="vk" viewBox="0 0 24 24">
    <path transform="translate(12 12) scale(2.2) translate(-12 -12)" d="M12.9 16.4c-3.9 0-6.1-2.7-6.2-7.2h1.9c.1 3.3 1.5 4.7 2.6 5V9.2h1.9v2.9c1.1-.2 2.3-1.5 2.6-2.9h1.9c-.3 1.7-1.6 3.1-2.5 3.7.9.4 2.3 1.7 2.8 3.5h-2c-.4-1.2-1.4-2.2-2.8-2.3v2.3h-.2z"/>
</symbol><symbol id="volume" viewBox="0 0 50.000000 50.000000">

    <g transform="translate(0.000000,50.000000) scale(0.100000,-0.100000)">
        <path d="M162 406 c-60 -57 -72 -65 -112 -68 l-45 -3 0 -85 0 -85 45 -3 c40
-3 52 -11 111 -68 37 -35 74 -64 83 -64 24 0 27 29 24 240 -4 235 -4 235 -106
136z m88 -156 c0 -110 -3 -200 -7 -200 -4 0 -38 30 -75 67 l-68 67 0 65 0 65
67 68 c37 38 71 68 75 68 5 0 8 -90 8 -200z m-170 0 l0 -70 -30 0 -30 0 0 70
0 70 30 0 30 0 0 -70z"/>
        <path d="M340 374 c0 -3 13 -19 29 -35 53 -52 52 -126 -1 -179 -36 -37 -29
-54 8 -19 51 47 68 113 43 162 -22 42 -79 94 -79 71z"/>
        <path d="M300 312 c0 -5 9 -17 20 -27 11 -10 20 -26 20 -35 0 -9 -9 -25 -20
-35 -26 -24 -26 -39 0 -25 31 17 46 55 32 84 -11 25 -52 54 -52 38z"/>
    </g>
</symbol></svg>