<?xml version="1.0" standalone="no"?>
<!DOCTYPE svg PUBLIC "-//W3C//DTD SVG 20010904//EN"
 "http://www.w3.org/TR/2001/REC-SVG-20010904/DTD/svg10.dtd">
<svg version="1.0" xmlns="http://www.w3.org/2000/svg"
 width="50.000000pt" height="50.000000pt" viewBox="0 0 50.000000 50.000000"
 preserveAspectRatio="xMidYMid meet">

<g transform="translate(0.000000,50.000000) scale(0.100000,-0.100000)"
fill="#723CE6" stroke="none">
<path d="M155 456 c-60 -28 -87 -56 -114 -116 -36 -79 -19 -183 42 -249 33
-36 115 -71 167 -71 52 0 134 35 167 71 48 53 77 161 57 213 -17 43 -59 0 -67
-68 -8 -81 -64 -136 -144 -143 -61 -5 -118 26 -151 82 -46 80 -7 189 80 223
33 13 38 19 38 49 0 40 -8 41 -75 9z"/>
<path d="M290 397 l0 -73 -34 4 c-45 5 -86 -32 -86 -78 0 -41 39 -80 80 -80
19 0 40 9 55 25 22 22 25 32 25 105 0 80 6 94 30 65 18 -22 28 -19 44 14 14
26 14 30 -2 44 -24 20 -78 47 -97 47 -12 0 -15 -14 -15 -73z"/>
</g>
</svg>
