<?xml version="1.0" standalone="no"?>
<!DOCTYPE svg PUBLIC "-//W3C//DTD SVG 20010904//EN"
 "http://www.w3.org/TR/2001/REC-SVG-20010904/DTD/svg10.dtd">
<svg version="1.0" xmlns="http://www.w3.org/2000/svg"
 width="50.000000pt" height="50.000000pt" viewBox="0 0 50.000000 50.000000"
 preserveAspectRatio="xMidYMid meet">

<g transform="translate(0.000000,50.000000) scale(0.100000,-0.100000)"
fill="#723CE6" stroke="none">
<path d="M150 443 c-147 -78 -160 -281 -23 -372 79 -53 160 -54 241 -4 59 36
102 113 102 183 0 113 -92 210 -208 218 -48 3 -66 -1 -112 -25z m171 -76 c45
-30 71 -82 65 -130 -16 -133 -179 -170 -253 -58 -79 118 70 267 188 188z"/>
<path d="M205 361 c-45 -20 -70 -60 -70 -112 0 -42 5 -53 33 -81 28 -28 39
-33 82 -33 43 0 54 5 82 33 28 28 33 39 33 82 0 42 -5 54 -31 81 -33 33 -92
46 -129 30z m71 -78 c24 -16 44 -30 44 -33 0 -8 -86 -60 -99 -60 -7 0 -11 22
-11 60 0 38 4 60 11 60 7 0 31 -12 55 -27z"/>
</g>
</svg>
